<?xml version="1.0" encoding="UTF-8" standalone="no"?>
<svg
   xmlns:dc="http://purl.org/dc/elements/1.1/"
   xmlns:cc="http://creativecommons.org/ns#"
   xmlns:rdf="http://www.w3.org/1999/02/22-rdf-syntax-ns#"
   xmlns:svg="http://www.w3.org/2000/svg"
   xmlns="http://www.w3.org/2000/svg"
   xmlns:sodipodi="http://sodipodi.sourceforge.net/DTD/sodipodi-0.dtd"
   xmlns:inkscape="http://www.inkscape.org/namespaces/inkscape"
   sodipodi:docname="kwinten.svg"
   inkscape:version="1.0beta2 (2b71d25, 2019-12-03)"
   id="svg8"
   version="1.1"
   viewBox="0 0 210 297"
   height="297mm"
   width="210mm">
  <defs
     id="defs2" />
  <sodipodi:namedview
     inkscape:window-maximized="0"
     inkscape:window-y="23"
     inkscape:window-x="0"
     inkscape:window-height="817"
     inkscape:window-width="1440"
     showgrid="false"
     inkscape:document-rotation="0"
     inkscape:current-layer="layer1"
     inkscape:document-units="mm"
     inkscape:cy="560"
     inkscape:cx="400"
     inkscape:zoom="0.35"
     inkscape:pageshadow="2"
     inkscape:pageopacity="0.0"
     borderopacity="1.0"
     bordercolor="#666666"
     pagecolor="#ffffff"
     id="base" />
  <metadata
     id="metadata5">
    <rdf:RDF>
      <cc:Work
         rdf:about="">
        <dc:format>image/svg+xml</dc:format>
        <dc:type
           rdf:resource="http://purl.org/dc/dcmitype/StillImage" />
        <dc:title></dc:title>
      </cc:Work>
    </rdf:RDF>
  </metadata>
  <g
     id="layer1"
     inkscape:groupmode="layer"
     inkscape:label="Layer 1">
    <text
       id="text12"
       y="26.458332"
       x="52.5061"
       style="font-style:normal;font-weight:normal;font-size:10.58329999999999949px;line-height:1.25;font-family:sans-serif;fill:#000000;fill-opacity:1;stroke:none;stroke-width:0.264583;text-anchor:middle;text-align:center;"
       xml:space="preserve"><tspan
         style="stroke-width:0.264583;text-anchor:middle;text-align:center;"
         y="26.458332"
         x="17.386906"
         id="tspan10"
         sodipodi:role="line">1.5m afstand </tspan><tspan
         id="tspan49"
         style="stroke-width:0.264583;text-anchor:middle;text-align:center;"
         y="39.687458"
         x="17.386906"
         sodipodi:role="line">aub</tspan></text>
    <g
       transform="matrix(0.26458333,0,0,0.26458333,94.395061,17.7752)"
       id="g47"
       style="fill:#000000">
      <g
         id="g20">
        <path
           fill="#000000"
           d="m 50.665,22.664 v 0.027 c 0.091,0 0.178,-0.011 0.268,-0.013 0.092,0.002 0.179,0.013 0.271,0.013 v -0.027 c 5.438,-0.281 9.762,-4.767 9.762,-10.268 0,-5.504 -4.323,-9.982 -9.762,-10.261 V 2.106 c -0.092,0 -0.179,0.011 -0.271,0.013 -0.09,-0.002 -0.177,-0.013 -0.268,-0.013 v 0.028 c -5.439,0.279 -9.761,4.757 -9.761,10.261 0,5.501 4.322,9.988 9.761,10.269 z"
           id="path14"
           inkscape:connector-curvature="0" />
        <path
           fill="#000000"
           d="M 89.851,81.574 87.705,58.507 C 87.469,55.948 85.551,53.953 83.144,53.5 82.465,53.27 81.742,53.138 80.985,53.138 H 65.248 L 62.845,33.384 c -0.534,-4.399 -5.324,-7.435 -10.7,-6.781 -5.375,0.654 -9.297,4.75 -8.761,9.148 l 2.906,23.892 c 0.122,0.999 0.472,1.923 0.989,2.754 1.008,2.418 3.392,4.119 6.175,4.119 h 23.69 l 1.497,16.101 c 0.289,3.096 3.03,5.37 6.126,5.083 3.095,-0.288 5.371,-3.031 5.084,-6.126 z"
           id="path16"
           inkscape:connector-curvature="0" />
        <path
           fill="#000000"
           d="M 67.815,71.424 C 66.462,71.2 65.163,72.108 64.93,73.469 63.019,84.68 53.38,92.817 42.01,92.817 c -12.837,0 -23.281,-10.444 -23.281,-23.283 0,-11.31 8.086,-20.94 19.227,-22.899 1.36,-0.239 2.268,-1.536 2.029,-2.896 -0.239,-1.36 -1.532,-2.265 -2.896,-2.029 -13.534,2.379 -23.359,14.081 -23.359,27.823 0,15.596 12.687,28.283 28.281,28.283 13.815,0 25.527,-9.887 27.85,-23.508 0.231,-1.361 -0.684,-2.652 -2.046,-2.884 z"
           id="path18"
           inkscape:connector-curvature="0" />
      </g>
    </g>
  </g>
</svg>
